<svg width="16" height="16" viewBox="0 0 16 16" fill="none" xmlns="http://www.w3.org/2000/svg">
<path d="M11.126 2.5L13.5 4.87402V13.5H2.5V2.5H11.126ZM8 8.5C8.42446 8.5 8.76942 8.64247 9.06348 8.93652C9.35753 9.23058 9.5 9.57554 9.5 10C9.5 10.4245 9.35753 10.7694 9.06348 11.0635C8.76942 11.3575 8.42446 11.5 8 11.5C7.57554 11.5 7.23058 11.3575 6.93652 11.0635C6.64247 10.7694 6.5 10.4245 6.5 10C6.5 9.57554 6.64247 9.23058 6.93652 8.93652C7.23058 8.64247 7.57554 8.5 8 8.5ZM9.5 4.5V6.16699H4.5V4.5H9.5ZM13.167 5.02637L10.9736 2.83301H2.83301V13.167H13.167V5.02637Z" fill="black" stroke="#1C1C1C"/>
</svg>
