<svg width="24" height="24" viewBox="0 0 24 24" fill="none" xmlns="http://www.w3.org/2000/svg">
<path d="M9.5 3.5C11.1857 3.5 12.5955 4.07918 13.7598 5.24219C14.9234 6.40473 15.5018 7.81331 15.5 9.49902V9.5C15.5 10.1793 15.3924 10.8137 15.1797 11.4062C14.9636 12.0083 14.6724 12.5337 14.3096 12.9873L14.0303 13.3369L20.293 19.5996L19.5996 20.293L13.3369 14.0303L12.9873 14.3096C12.5337 14.6724 12.0083 14.9636 11.4062 15.1797C10.8137 15.3924 10.1793 15.5 9.5 15.5C7.81289 15.5 6.40326 14.9215 5.24121 13.7588C4.07911 12.596 3.50066 11.1864 3.5 9.5C3.49938 7.81375 4.07783 6.40398 5.24121 5.24121C6.40473 4.07835 7.81437 3.5 9.5 3.5ZM9.50098 4.5C8.11829 4.49853 6.92742 4.98792 5.95898 5.95996C4.99164 6.931 4.50225 8.12036 4.5 9.49902C4.49779 10.879 4.98708 12.0701 5.95898 13.042C6.93066 14.0137 8.12094 14.5017 9.5 14.499C10.8809 14.499 12.0709 14.0112 13.041 13.042C14.0113 12.0724 14.5007 10.8817 14.5 9.5C14.4993 8.11858 14.0109 6.92793 13.042 5.95898C12.0732 4.99016 10.8827 4.50158 9.50098 4.5Z" fill="black" stroke="#5E6A79"/>
</svg>
