<svg width="24" height="24" viewBox="0 0 24 24" fill="none" xmlns="http://www.w3.org/2000/svg">
<path d="M6.00195 11C6.28045 10.9993 6.49793 11.0868 6.70605 11.2949C6.91408 11.5029 7.00095 11.7192 7 11.9961C6.99897 12.2789 6.90941 12.5001 6.70215 12.71C6.50139 12.9131 6.28789 13.0014 6.00488 13H6C5.71707 13 5.50003 12.9112 5.29492 12.7061C5.08984 12.501 5.00039 12.2833 5 11.999C4.99966 11.7167 5.08809 11.5008 5.29297 11.2969C5.50073 11.0902 5.71982 11.0008 6.00195 11ZM12.002 11C12.2804 10.9993 12.4979 11.0868 12.7061 11.2949C12.9141 11.5029 13.001 11.7192 13 11.9961C12.999 12.2789 12.9094 12.5001 12.7021 12.71C12.5014 12.9131 12.2879 13.0014 12.0049 13H12C11.7171 13 11.5 12.9112 11.2949 12.7061C11.0898 12.501 11.0004 12.2833 11 11.999C10.9997 11.7167 11.0881 11.5008 11.293 11.2969C11.5007 11.0902 11.7198 11.0008 12.002 11ZM18.002 11C18.2804 10.9993 18.4979 11.0868 18.7061 11.2949C18.9141 11.5029 19.001 11.7192 19 11.9961C18.999 12.2789 18.9094 12.5001 18.7021 12.71C18.5014 12.9131 18.2879 13.0014 18.0049 13H18C17.7171 13 17.5 12.9112 17.2949 12.7061C17.0898 12.501 17.0004 12.2833 17 11.999C16.9997 11.7167 17.0881 11.5008 17.293 11.2969C17.5007 11.0902 17.7198 11.0008 18.002 11Z" fill="black" stroke="#525252" stroke-width="2"/>
</svg>
