<svg width="30" height="36" viewBox="0 0 30 36" fill="none" xmlns="http://www.w3.org/2000/svg">
<path d="M17 2C17 0.89543 16.1046 0 15 0C13.8954 0 13 0.89543 13 2L15 2L17 2ZM13.5858 35.4142C14.3668 36.1953 15.6332 36.1953 16.4142 35.4142L29.1421 22.6863C29.9232 21.9052 29.9232 20.6389 29.1421 19.8579C28.3611 19.0768 27.0948 19.0768 26.3137 19.8579L15 31.1716L3.68629 19.8579C2.90524 19.0768 1.63891 19.0768 0.857864 19.8579C0.0768156 20.6389 0.0768156 21.9052 0.857864 22.6863L13.5858 35.4142ZM15 2L13 2L13 34H15H17L17 2L15 2Z" fill="#141414"/>
</svg>
