<svg width="49" height="48" viewBox="0 0 49 48" fill="none" xmlns="http://www.w3.org/2000/svg">
<rect x="0.5" width="48" height="48" rx="8" fill="#272727"/>
<path d="M25.8125 23.9187C26.5979 23.0521 27.2008 22.0635 27.6211 20.9531C28.0415 19.8427 28.2511 18.6917 28.25 17.5C28.2489 16.3083 28.0393 15.1573 27.6211 14.0469C27.203 12.9365 26.6001 11.9479 25.8125 11.0813C27.4375 11.2979 28.7917 12.0156 29.875 13.2344C30.9583 14.4531 31.5 15.875 31.5 17.5C31.5 19.125 30.9583 20.5469 29.875 21.7656C28.7917 22.9844 27.4375 23.7021 25.8125 23.9187ZM33.8562 37C34.1542 36.5125 34.3779 35.9914 34.5274 35.4367C34.6769 34.8821 34.7511 34.3198 34.75 33.75V32.125C34.75 31.15 34.5333 30.2221 34.1 29.3414C33.6667 28.4606 33.0979 27.6822 32.3937 27.0062C33.775 27.4937 35.055 28.1237 36.2336 28.8961C37.4123 29.6685 38.0011 30.7448 38 32.125V33.75C38 34.6437 37.682 35.4091 37.0461 36.0461C36.4102 36.6831 35.6448 37.0011 34.75 37H33.8562ZM38 22.375H36.375C35.9146 22.375 35.5289 22.219 35.218 21.907C34.9071 21.595 34.7511 21.2093 34.75 20.75C34.7489 20.2907 34.9049 19.905 35.218 19.593C35.5311 19.281 35.9167 19.125 36.375 19.125H38V17.5C38 17.0396 38.156 16.6539 38.468 16.343C38.78 16.0321 39.1657 15.8761 39.625 15.875C40.0843 15.8739 40.4705 16.0299 40.7836 16.343C41.0967 16.6561 41.2522 17.0417 41.25 17.5V19.125H42.875C43.3354 19.125 43.7216 19.281 44.0336 19.593C44.3456 19.905 44.5011 20.2907 44.5 20.75C44.4989 21.2093 44.3429 21.5955 44.032 21.9086C43.7211 22.2217 43.3354 22.3772 42.875 22.375H41.25V24C41.25 24.4604 41.094 24.8466 40.782 25.1586C40.47 25.4706 40.0843 25.6261 39.625 25.625C39.1657 25.6239 38.78 25.4679 38.468 25.157C38.156 24.8461 38 24.4604 38 24V22.375ZM18.5 24C16.7125 24 15.1823 23.3635 13.9094 22.0906C12.6365 20.8177 12 19.2875 12 17.5C12 15.7125 12.6365 14.1823 13.9094 12.9094C15.1823 11.6365 16.7125 11 18.5 11C20.2875 11 21.8177 11.6365 23.0906 12.9094C24.3635 14.1823 25 15.7125 25 17.5C25 19.2875 24.3635 20.8177 23.0906 22.0906C21.8177 23.3635 20.2875 24 18.5 24ZM5.5 33.75V32.45C5.5 31.5292 5.73725 30.6831 6.21175 29.9117C6.68625 29.1404 7.31567 28.5511 8.1 28.1437C9.77917 27.3042 11.4854 26.6747 13.2187 26.2555C14.9521 25.8362 16.7125 25.6261 18.5 25.625C20.2875 25.6239 22.0479 25.8341 23.7812 26.2555C25.5146 26.6769 27.2208 27.3063 28.9 28.1437C29.6854 28.55 30.3154 29.1393 30.7899 29.9117C31.2644 30.6842 31.5011 31.5302 31.5 32.45V33.75C31.5 34.6437 31.182 35.4091 30.5461 36.0461C29.9102 36.6831 29.1448 37.0011 28.25 37H8.75C7.85625 37 7.09142 36.682 6.4555 36.0461C5.81958 35.4102 5.50108 34.6448 5.5 33.75ZM18.5 20.75C19.3937 20.75 20.1591 20.432 20.7961 19.7961C21.4331 19.1602 21.7511 18.3948 21.75 17.5C21.7489 16.6052 21.431 15.8403 20.7961 15.2055C20.1613 14.5707 19.3959 14.2522 18.5 14.25C17.6041 14.2478 16.8392 14.5663 16.2055 15.2055C15.5717 15.8447 15.2532 16.6095 15.25 17.5C15.2467 18.3905 15.5652 19.1559 16.2055 19.7961C16.8457 20.4364 17.6106 20.7543 18.5 20.75ZM8.75 33.75H28.25V32.45C28.25 32.1521 28.1758 31.8812 28.0274 31.6375C27.879 31.3937 27.6823 31.2042 27.4375 31.0687C25.975 30.3375 24.499 29.7893 23.0094 29.4242C21.5198 29.0592 20.0167 28.8761 18.5 28.875C16.9833 28.8739 15.4802 29.057 13.9906 29.4242C12.501 29.7915 11.025 30.3397 9.5625 31.0687C9.31875 31.2042 9.12212 31.3937 8.97262 31.6375C8.82312 31.8812 8.74892 32.1521 8.75 32.45V33.75Z" fill="#EC1617"/>
</svg>
