<svg width="49" height="48" viewBox="0 0 49 48" fill="none" xmlns="http://www.w3.org/2000/svg">
<rect x="0.5" width="48" height="48" rx="8" fill="#272727"/>
<path d="M15.5 22C13.5667 22 11.9167 21.3167 10.55 19.95C9.18333 18.5833 8.5 16.9333 8.5 15C8.5 13.0667 9.18333 11.4167 10.55 10.05C11.9167 8.68333 13.5667 8 15.5 8C17.4333 8 19.0833 8.68333 20.45 10.05C21.8167 11.4167 22.5 13.0667 22.5 15C22.5 16.9333 21.8167 18.5833 20.45 19.95C19.0833 21.3167 17.4333 22 15.5 22ZM15.5 18C16.3333 18 17.042 17.7087 17.626 17.126C18.21 16.5433 18.5013 15.8347 18.5 15C18.4987 14.1653 18.2073 13.4573 17.626 12.876C17.0447 12.2947 16.336 12.0027 15.5 12C14.664 11.9973 13.956 12.2893 13.376 12.876C12.796 13.4627 12.504 14.1707 12.5 15C12.496 15.8293 12.788 16.538 13.376 17.126C13.964 17.714 14.672 18.0053 15.5 18ZM33.5 40C31.5667 40 29.9167 39.3167 28.55 37.95C27.1833 36.5833 26.5 34.9333 26.5 33C26.5 31.0667 27.1833 29.4167 28.55 28.05C29.9167 26.6833 31.5667 26 33.5 26C35.4333 26 37.0833 26.6833 38.45 28.05C39.8167 29.4167 40.5 31.0667 40.5 33C40.5 34.9333 39.8167 36.5833 38.45 37.95C37.0833 39.3167 35.4333 40 33.5 40ZM33.5 36C34.3333 36 35.042 35.7087 35.626 35.126C36.21 34.5433 36.5013 33.8347 36.5 33C36.4987 32.1653 36.2073 31.4573 35.626 30.876C35.0447 30.2947 34.336 30.0027 33.5 30C32.664 29.9973 31.956 30.2893 31.376 30.876C30.796 31.4627 30.504 32.1707 30.5 33C30.496 33.8293 30.788 34.538 31.376 35.126C31.964 35.714 32.672 36.0053 33.5 36ZM11.3 40L8.5 37.2L37.7 8L40.5 10.8L11.3 40Z" fill="#EC1617"/>
</svg>
