<svg width="49" height="48" viewBox="0 0 49 48" fill="none" xmlns="http://www.w3.org/2000/svg">
<rect x="0.5" width="48" height="48" rx="8" fill="#272727"/>
<path d="M11.7 40V22.1905H8.5V12.4762H16.82C16.6867 12.2333 16.6003 11.977 16.5608 11.7071C16.5213 11.4373 16.5011 11.154 16.5 10.8571C16.5 9.50794 16.9667 8.36111 17.9 7.41667C18.8333 6.47222 19.9667 6 21.3 6C21.9133 6 22.4867 6.11495 23.02 6.34486C23.5533 6.57476 24.0467 6.89156 24.5 7.29524C24.9533 6.86349 25.4467 6.53968 25.98 6.32381C26.5133 6.10794 27.0867 6 27.7 6C29.0333 6 30.1667 6.47222 31.1 7.41667C32.0333 8.36111 32.5 9.50794 32.5 10.8571C32.5 11.154 32.4733 11.4308 32.42 11.6877C32.3667 11.9446 32.2867 12.2074 32.18 12.4762H40.5V22.1905H37.3V40H11.7ZM27.7 9.2381C27.2467 9.2381 26.8669 9.39352 26.5608 9.70438C26.2547 10.0152 26.1011 10.3995 26.1 10.8571C26.0989 11.3148 26.2525 11.6996 26.5608 12.0115C26.8691 12.3235 27.2488 12.4783 27.7 12.4762C28.1512 12.474 28.5315 12.3186 28.8408 12.0099C29.1501 11.7012 29.3032 11.317 29.3 10.8571C29.2968 10.3973 29.1432 10.0131 28.8392 9.70438C28.5352 9.39568 28.1555 9.24025 27.7 9.2381ZM19.7 10.8571C19.7 11.3159 19.8536 11.7007 20.1608 12.0115C20.468 12.3224 20.8477 12.4773 21.3 12.4762C21.7523 12.4751 22.1325 12.3197 22.4408 12.0099C22.7491 11.7001 22.9021 11.3159 22.9 10.8571C22.8979 10.3984 22.7443 10.0142 22.4392 9.70438C22.1341 9.3946 21.7544 9.23917 21.3 9.2381C20.8456 9.23702 20.4659 9.39244 20.1608 9.70438C19.8557 10.0163 19.7021 10.4006 19.7 10.8571ZM11.7 15.7143V18.9524H22.9V15.7143H11.7ZM22.9 36.7619V22.1905H14.9V36.7619H22.9ZM26.1 36.7619H34.1V22.1905H26.1V36.7619ZM37.3 18.9524V15.7143H26.1V18.9524H37.3Z" fill="#EC1617"/>
</svg>
