<svg width="101" height="100" viewBox="0 0 101 100" fill="none" xmlns="http://www.w3.org/2000/svg">
<g filter="url(#filter0_i_146_1453)">
<path d="M21.333 83.3335V75.0002H79.6664V83.3335H21.333ZM21.333 68.7502L16.0205 35.3127C15.8816 35.3127 15.7247 35.3307 15.5497 35.3668C15.3747 35.403 15.2191 35.4196 15.083 35.4168C13.3469 35.4168 11.8719 34.8085 10.658 33.5918C9.44413 32.3752 8.8358 30.9002 8.83302 29.1668C8.83024 27.4335 9.43857 25.9585 10.658 24.7418C11.8775 23.5252 13.3525 22.9168 15.083 22.9168C16.8136 22.9168 18.29 23.5252 19.5122 24.7418C20.7344 25.9585 21.3414 27.4335 21.333 29.1668C21.333 29.653 21.2802 30.1043 21.1747 30.521C21.0691 30.9377 20.9483 31.3196 20.8122 31.6668L33.833 37.5002L46.8539 19.6877C46.09 19.1321 45.465 18.403 44.9789 17.5002C44.4927 16.5974 44.2497 15.6252 44.2497 14.5835C44.2497 12.8474 44.858 11.371 46.0747 10.1543C47.2914 8.93767 48.7663 8.33073 50.4997 8.33351C52.233 8.33628 53.7094 8.94462 54.9288 10.1585C56.1483 11.3724 56.7552 12.8474 56.7497 14.5835C56.7497 15.6252 56.5066 16.5974 56.0205 17.5002C55.5344 18.403 54.9094 19.1321 54.1455 19.6877L67.1664 37.5002L80.1872 31.6668C80.0483 31.3196 79.9261 30.9377 79.8205 30.521C79.715 30.1043 79.6636 29.653 79.6664 29.1668C79.6664 27.4307 80.2747 25.9543 81.4914 24.7377C82.708 23.521 84.183 22.9141 85.9164 22.9168C87.6497 22.9196 89.1261 23.528 90.3455 24.7418C91.565 25.9557 92.1719 27.4307 92.1664 29.1668C92.1608 30.903 91.5539 32.3793 90.3455 33.596C89.1372 34.8127 87.6608 35.4196 85.9164 35.4168C85.7775 35.4168 85.6219 35.4002 85.4497 35.3668C85.2775 35.3335 85.1205 35.3155 84.9789 35.3127L79.6664 68.7502H21.333Z" fill="#EC6416"/>
</g>
<defs>
<filter id="filter0_i_146_1453" x="8.83301" y="8.3335" width="86.333" height="78" filterUnits="userSpaceOnUse" color-interpolation-filters="sRGB">
<feFlood flood-opacity="0" result="BackgroundImageFix"/>
<feBlend mode="normal" in="SourceGraphic" in2="BackgroundImageFix" result="shape"/>
<feColorMatrix in="SourceAlpha" type="matrix" values="0 0 0 0 0 0 0 0 0 0 0 0 0 0 0 0 0 0 127 0" result="hardAlpha"/>
<feOffset dx="3" dy="3"/>
<feGaussianBlur stdDeviation="2.5"/>
<feComposite in2="hardAlpha" operator="arithmetic" k2="-1" k3="1"/>
<feColorMatrix type="matrix" values="0 0 0 0 0 0 0 0 0 0 0 0 0 0 0 0 0 0 0.25 0"/>
<feBlend mode="normal" in2="shape" result="effect1_innerShadow_146_1453"/>
</filter>
</defs>
</svg>
