<svg width="101" height="100" viewBox="0 0 101 100" fill="none" xmlns="http://www.w3.org/2000/svg">
<g filter="url(#filter0_i_146_1453)">
<path d="M21.3333 83.3334V75.0001H79.6667V83.3334H21.3333ZM21.3333 68.7501L16.0208 35.3126C15.8819 35.3126 15.725 35.3306 15.55 35.3667C15.375 35.4028 15.2194 35.4195 15.0833 35.4167C13.3472 35.4167 11.8722 34.8084 10.6583 33.5917C9.44443 32.3751 8.8361 30.9001 8.83332 29.1667C8.83054 27.4334 9.43888 25.9584 10.6583 24.7417C11.8778 23.5251 13.3528 22.9167 15.0833 22.9167C16.8139 22.9167 18.2903 23.5251 19.5125 24.7417C20.7347 25.9584 21.3417 27.4334 21.3333 29.1667C21.3333 29.6528 21.2805 30.1042 21.175 30.5209C21.0694 30.9376 20.9486 31.3195 20.8125 31.6667L33.8333 37.5001L46.8542 19.6876C46.0903 19.132 45.4653 18.4028 44.9792 17.5001C44.493 16.5973 44.25 15.6251 44.25 14.5834C44.25 12.8473 44.8583 11.3709 46.075 10.1542C47.2917 8.93755 48.7667 8.33061 50.5 8.33338C52.2333 8.33616 53.7097 8.94449 54.9292 10.1584C56.1486 11.3723 56.7555 12.8473 56.75 14.5834C56.75 15.6251 56.5069 16.5973 56.0208 17.5001C55.5347 18.4028 54.9097 19.132 54.1458 19.6876L67.1667 37.5001L80.1875 31.6667C80.0486 31.3195 79.9264 30.9376 79.8208 30.5209C79.7153 30.1042 79.6639 29.6528 79.6667 29.1667C79.6667 27.4306 80.275 25.9542 81.4917 24.7376C82.7083 23.5209 84.1833 22.9139 85.9167 22.9167C87.65 22.9195 89.1264 23.5278 90.3458 24.7417C91.5653 25.9556 92.1722 27.4306 92.1667 29.1667C92.1611 30.9028 91.5542 32.3792 90.3458 33.5959C89.1375 34.8126 87.6611 35.4195 85.9167 35.4167C85.7778 35.4167 85.6222 35.4001 85.45 35.3667C85.2778 35.3334 85.1208 35.3153 84.9792 35.3126L79.6667 68.7501H21.3333Z" fill="#EC6416"/>
</g>
<defs>
<filter id="filter0_i_146_1453" x="8.83331" y="8.33337" width="86.3334" height="78" filterUnits="userSpaceOnUse" color-interpolation-filters="sRGB">
<feFlood floodOpacity="0" result="BackgroundImageFix"/>
<feBlend mode="normal" in="SourceGraphic" in2="BackgroundImageFix" result="shape"/>
<feColorMatrix in="SourceAlpha" type="matrix" values="0 0 0 0 0 0 0 0 0 0 0 0 0 0 0 0 0 0 127 0" result="hardAlpha"/>
<feOffset dx="3" dy="3"/>
<feGaussianBlur stdDeviation="2.5"/>
<feComposite in2="hardAlpha" operator="arithmetic" k2="-1" k3="1"/>
<feColorMatrix type="matrix" values="0 0 0 0 0 0 0 0 0 0 0 0 0 0 0 0 0 0 0.25 0"/>
<feBlend mode="normal" in2="shape" result="effect1_innerShadow_146_1453"/>
</filter>
</defs>
</svg>
