<svg width="6" height="7" viewBox="0 0 6 7" fill="none" xmlns="http://www.w3.org/2000/svg">
<path d="M2.00136 3.01536C2.00136 2.46261 2.4492 2.01439 3.0018 2.01439C3.5544 2.01439 4.00248 2.46261 4.00248 3.01536C4.00248 3.56812 3.5544 4.01633 3.0018 4.01633C2.4492 4.01633 2.00136 3.56812 2.00136 3.01536ZM1.46041 3.01536C1.46041 3.86692 2.15049 4.5572 3.0018 4.5572C3.85311 4.5572 4.54319 3.86692 4.54319 3.01536C4.54319 2.16381 3.85311 1.47353 3.0018 1.47353C2.15049 1.47353 1.46041 2.16381 1.46041 3.01536ZM4.24399 1.41239C4.24396 1.48366 4.26506 1.55333 4.30462 1.6126C4.34418 1.67187 4.40042 1.71808 4.46623 1.74538C4.53204 1.77267 4.60446 1.77984 4.67434 1.76596C4.74422 1.75209 4.80842 1.7178 4.85882 1.66743C4.90922 1.61705 4.94355 1.55286 4.95747 1.48297C4.9714 1.41309 4.9643 1.34063 4.93706 1.27478C4.90982 1.20893 4.86368 1.15264 4.80445 1.11302C4.74523 1.07341 4.6756 1.05225 4.60435 1.05222H4.60421C4.50871 1.05226 4.41714 1.09022 4.3496 1.15775C4.28206 1.22528 4.24408 1.31687 4.24399 1.41239ZM1.78907 5.45946C1.49641 5.44613 1.33734 5.39737 1.23163 5.35617C1.09148 5.30159 0.991482 5.23659 0.886347 5.13157C0.781212 5.02655 0.716133 4.92662 0.661813 4.78643C0.620604 4.68074 0.571855 4.52157 0.558551 4.22882C0.543998 3.91232 0.541092 3.81724 0.541092 3.01539C0.541092 2.21353 0.544238 2.11872 0.558551 1.80195C0.571879 1.5092 0.620988 1.35035 0.661813 1.24434C0.716374 1.10415 0.781357 1.00413 0.886347 0.898962C0.991338 0.793797 1.09124 0.728699 1.23163 0.674363C1.33729 0.633142 1.49641 0.584379 1.78907 0.571071C2.10549 0.556514 2.20054 0.553608 3.0018 0.553608C3.80306 0.553608 3.89821 0.556755 4.21489 0.571071C4.50755 0.584403 4.66636 0.633527 4.77233 0.674363C4.91248 0.728699 5.01248 0.793941 5.11761 0.898962C5.22275 1.00398 5.28759 1.10415 5.34215 1.24434C5.38336 1.35004 5.43211 1.5092 5.44541 1.80195C5.45996 2.11872 5.46287 2.21353 5.46287 3.01539C5.46287 3.81724 5.45996 3.91205 5.44541 4.22882C5.43208 4.52157 5.38309 4.68069 5.34215 4.78643C5.28759 4.92662 5.2226 5.02664 5.11761 5.13157C5.01262 5.2365 4.91248 5.30159 4.77233 5.35617C4.66667 5.39739 4.50755 5.44615 4.21489 5.45946C3.89847 5.47402 3.80342 5.47692 3.0018 5.47692C2.20018 5.47692 2.10539 5.47402 1.78907 5.45946ZM1.76422 0.0308795C1.44466 0.0454364 1.2263 0.0961214 1.0356 0.170347C0.838103 0.246999 0.670914 0.349835 0.503846 0.516687C0.336778 0.683539 0.234236 0.85104 0.157606 1.04859C0.083402 1.23946 0.0327316 1.45777 0.0181789 1.77742C0.00338603 2.09758 0 2.19993 0 3.01536C0 3.83079 0.00338603 3.93315 0.0181789 4.2533C0.0327316 4.57298 0.083402 4.79126 0.157606 4.98213C0.234236 5.17956 0.336802 5.34726 0.503846 5.51404C0.67089 5.68082 0.838103 5.78351 1.0356 5.86038C1.22666 5.9346 1.44466 5.98529 1.76422 5.99985C2.08445 6.0144 2.18661 6.01803 3.0018 6.01803C3.81699 6.01803 3.91932 6.01464 4.23938 5.99985C4.55897 5.98529 4.77718 5.9346 4.968 5.86038C5.16538 5.78351 5.33269 5.68089 5.49975 5.51404C5.66682 5.34719 5.76915 5.17956 5.84599 4.98213C5.9202 4.79126 5.97111 4.57295 5.98542 4.2533C5.99997 3.93291 6.00336 3.83079 6.00336 3.01536C6.00336 2.19993 5.99997 2.09758 5.98542 1.77742C5.97087 1.45775 5.9202 1.23934 5.84599 1.04859C5.76915 0.85116 5.66656 0.683803 5.49975 0.516687C5.33295 0.349571 5.16538 0.246999 4.96824 0.170347C4.77718 0.0961214 4.55894 0.0451962 4.23962 0.0308795C3.91956 0.0163225 3.81723 0.0126953 3.00204 0.0126953C2.18685 0.0126953 2.08445 0.0160823 1.76422 0.0308795Z" fill="white"/>
</svg>
