<svg width="30" height="30" viewBox="0 0 30 30" fill="none" xmlns="http://www.w3.org/2000/svg">
<rect width="30" height="30" rx="15" fill="url(#paint0_linear_153_1635)"/>
<path d="M12.5035 15.0385C12.5035 13.6566 13.6231 12.536 15.0046 12.536C16.386 12.536 17.5063 13.6566 17.5063 15.0385C17.5063 16.4204 16.386 17.5409 15.0046 17.5409C13.6231 17.5409 12.5035 16.4204 12.5035 15.0385ZM11.1511 15.0385C11.1511 17.1674 12.8763 18.8931 15.0046 18.8931C17.1328 18.8931 18.858 17.1674 18.858 15.0385C18.858 12.9096 17.1328 11.1839 15.0046 11.1839C12.8763 11.1839 11.1511 12.9096 11.1511 15.0385ZM18.11 11.031C18.11 11.2092 18.1627 11.3834 18.2616 11.5316C18.3605 11.6797 18.5011 11.7953 18.6656 11.8635C18.8302 11.9317 19.0112 11.9497 19.1859 11.915C19.3606 11.8803 19.5211 11.7946 19.6471 11.6686C19.7731 11.5427 19.8589 11.3822 19.8937 11.2075C19.9286 11.0328 19.9108 10.8516 19.8427 10.687C19.7746 10.5224 19.6592 10.3817 19.5112 10.2826C19.3631 10.1836 19.1891 10.1307 19.0109 10.1306H19.0106C18.7718 10.1307 18.5429 10.2256 18.3741 10.3944C18.2052 10.5633 18.1102 10.7922 18.11 11.031ZM11.9727 21.1487C11.2411 21.1154 10.8434 20.9935 10.5791 20.8905C10.2288 20.754 9.97877 20.5915 9.71593 20.329C9.45309 20.0664 9.29039 19.8166 9.15459 19.4661C9.05157 19.2019 8.9297 18.804 8.89644 18.0721C8.86006 17.2809 8.85279 17.0432 8.85279 15.0385C8.85279 13.0339 8.86066 12.7969 8.89644 12.0049C8.92976 11.2731 9.05253 10.8759 9.15459 10.6109C9.29099 10.2604 9.45345 10.0104 9.71593 9.74747C9.97841 9.48455 10.2282 9.32181 10.5791 9.18597C10.8433 9.08292 11.2411 8.96101 11.9727 8.92774C12.7638 8.89135 13.0014 8.88408 15.0046 8.88408C17.0077 8.88408 17.2456 8.89195 18.0373 8.92774C18.7689 8.96107 19.166 9.08388 19.4309 9.18597C19.7813 9.32181 20.0313 9.48491 20.2941 9.74747C20.5569 10.01 20.719 10.2604 20.8554 10.6109C20.9585 10.8751 21.0803 11.2731 21.1136 12.0049C21.15 12.7969 21.1572 13.0339 21.1572 15.0385C21.1572 17.0432 21.15 17.2802 21.1136 18.0721C21.0803 18.804 20.9578 19.2018 20.8554 19.4661C20.719 19.8166 20.5566 20.0667 20.2941 20.329C20.0316 20.5913 19.7813 20.754 19.4309 20.8905C19.1667 20.9935 18.7689 21.1154 18.0373 21.1487C17.2462 21.1851 17.0086 21.1924 15.0046 21.1924C13.0005 21.1924 12.7635 21.1851 11.9727 21.1487ZM11.9106 7.57726C11.1117 7.61365 10.5658 7.74036 10.0891 7.92593C9.59532 8.11756 9.17735 8.37465 8.75968 8.79178C8.34201 9.20891 8.08565 9.62766 7.89408 10.1215C7.70857 10.5987 7.58189 11.1445 7.54551 11.9436C7.50853 12.744 7.50006 12.9999 7.50006 15.0385C7.50006 17.077 7.50853 17.3329 7.54551 18.1333C7.58189 18.9325 7.70857 19.4782 7.89408 19.9554C8.08565 20.449 8.34207 20.8682 8.75968 21.2852C9.17729 21.7021 9.59532 21.9588 10.0891 22.151C10.5667 22.3366 11.1117 22.4633 11.9106 22.4997C12.7112 22.5361 12.9666 22.5451 15.0046 22.5451C17.0425 22.5451 17.2984 22.5367 18.0985 22.4997C18.8975 22.4633 19.443 22.3366 19.9201 22.151C20.4135 21.9588 20.8318 21.7023 21.2494 21.2852C21.6671 20.868 21.9229 20.449 22.115 19.9554C22.3006 19.4782 22.4278 18.9324 22.4636 18.1333C22.5 17.3323 22.5085 17.077 22.5085 15.0385C22.5085 12.9999 22.5 12.744 22.4636 11.9436C22.4272 11.1444 22.3006 10.5984 22.115 10.1215C21.9229 9.62796 21.6665 9.20957 21.2494 8.79178C20.8324 8.37399 20.4135 8.11756 19.9207 7.92593C19.443 7.74036 18.8974 7.61305 18.0991 7.57726C17.299 7.54087 17.0431 7.5318 15.0052 7.5318C12.9672 7.5318 12.7112 7.54027 11.9106 7.57726Z" fill="white"/>
<defs>
<linearGradient id="paint0_linear_153_1635" x1="29.4234" y1="30" x2="-0.576599" y2="-8.07516e-07" gradientUnits="userSpaceOnUse">
<stop stop-color="#FBE18A"/>
<stop offset="0.21" stop-color="#FCBB45"/>
<stop offset="0.38" stop-color="#F75274"/>
<stop offset="0.52" stop-color="#D53692"/>
<stop offset="0.74" stop-color="#8F39CE"/>
<stop offset="1" stop-color="#5B4FE9"/>
</linearGradient>
</defs>
</svg>
