<svg width="101" height="100" viewBox="0 0 101 100" fill="none" xmlns="http://www.w3.org/2000/svg">
<path d="M33.8333 79.1667V66.6667H58.8333V56.25H38V43.75H58.8333V33.3334H33.8333V20.8334H58.8333C62.3055 20.8334 65.2569 22.0487 67.6875 24.4792C70.118 26.9098 71.3333 29.8612 71.3333 33.3334V41.25C71.3333 43.6806 70.4833 45.7473 68.7833 47.45C67.0833 49.1528 65.0166 50.0028 62.5833 50C65.0139 50 67.0805 50.8514 68.7833 52.5542C70.4861 54.257 71.3361 56.3223 71.3333 58.75V66.6667C71.3333 70.1389 70.118 73.0903 67.6875 75.5209C65.2569 77.9514 62.3055 79.1667 58.8333 79.1667H33.8333Z" fill="#272727"/>
</svg>
