<svg width="30" height="30" viewBox="0 0 30 30" fill="none" xmlns="http://www.w3.org/2000/svg">
<rect width="30" height="30" rx="15" fill="black"/>
<path fill-rule="evenodd" clip-rule="evenodd" d="M18.2402 12.9609C19.245 13.6759 20.4482 14.0578 21.681 14.0532V11.6078C21.4387 11.6085 21.197 11.5825 20.9603 11.5304V13.4785C19.7247 13.4807 18.5197 13.0944 17.5154 12.3741V17.4033C17.5123 18.2286 17.2862 19.0376 16.861 19.7447C16.4358 20.4518 15.8273 21.0305 15.1001 21.4195C14.373 21.8084 13.5541 21.9932 12.7305 21.9542C11.9069 21.9151 11.1092 21.6537 10.422 21.1977C11.0577 21.8414 11.8699 22.2819 12.7558 22.4633C13.6417 22.6447 14.5615 22.5589 15.3986 22.2167C16.2358 21.8746 16.9527 21.2915 17.4585 20.5413C17.9644 19.7911 18.2364 18.9075 18.2402 18.0024V12.9609ZM19.132 10.4667C18.621 9.91236 18.3075 9.20451 18.2402 8.45333V8.13544H17.5561C17.6407 8.61292 17.8247 9.06725 18.0962 9.46889C18.3677 9.87053 18.7206 10.2105 19.132 10.4667ZM12.006 19.2618C11.7689 18.9515 11.6236 18.5807 11.5866 18.1918C11.5497 17.8029 11.6225 17.4114 11.7969 17.0619C11.9713 16.7124 12.2402 16.4189 12.5731 16.2148C12.9059 16.0108 13.2893 15.9043 13.6796 15.9076C13.8951 15.9075 14.1093 15.9405 14.3148 16.0054V13.4785C14.0746 13.4467 13.8323 13.4331 13.59 13.4378V15.4022C13.0896 15.2439 12.548 15.2799 12.0729 15.5031C11.5978 15.7262 11.2241 16.1202 11.026 16.6066C10.8279 17.093 10.82 17.6362 11.0039 18.1282C11.1877 18.6202 11.5498 19.0249 12.0182 19.2618H12.006Z" fill="#EE1D52"/>
<path fill-rule="evenodd" clip-rule="evenodd" d="M17.515 12.3577C18.5193 13.0781 19.7244 13.4644 20.9599 13.4622V11.5141C20.256 11.3651 19.6165 10.9988 19.1316 10.4667C18.7202 10.2105 18.3673 9.87053 18.0958 9.46889C17.8243 9.06725 17.6403 8.61292 17.5558 8.13544H15.7559V18.0024C15.7543 18.4392 15.616 18.8644 15.3605 19.2185C15.105 19.5726 14.7452 19.8377 14.3315 19.9766C13.9178 20.1155 13.471 20.1213 13.0539 19.9931C12.6367 19.8649 12.2702 19.6092 12.0057 19.2618C11.5865 19.0501 11.2507 18.7032 11.0527 18.2771C10.8546 17.851 10.8058 17.3706 10.914 16.9133C11.0222 16.456 11.2812 16.0485 11.6492 15.7566C12.0172 15.4647 12.4727 15.3054 12.9422 15.3044C13.1576 15.3051 13.3718 15.3381 13.5774 15.4022V13.4378C12.6888 13.4591 11.8257 13.7397 11.0941 14.2451C10.3625 14.7505 9.79425 15.4587 9.45912 16.2828C9.12399 17.1068 9.03656 18.0109 9.20754 18.884C9.37853 19.7571 9.8005 20.5612 10.4217 21.1977C11.109 21.657 11.908 21.9211 12.7334 21.9619C13.5589 22.0026 14.3799 21.8185 15.1091 21.4291C15.8383 21.0397 16.4483 20.4597 16.8741 19.7507C17.2999 19.0418 17.5257 18.2305 17.5272 17.4033L17.515 12.3577Z" fill="white"/>
<path fill-rule="evenodd" clip-rule="evenodd" d="M20.9601 11.514V10.9882C20.3137 10.991 19.6797 10.8101 19.1318 10.4665C19.6155 11.0002 20.2555 11.3668 20.9601 11.514ZM17.556 8.13529C17.556 8.04155 17.5275 7.94374 17.5153 7.85V7.5321H15.0314V17.4032C15.0292 17.9559 14.808 18.4852 14.4164 18.8749C14.0248 19.2646 13.4947 19.4828 12.9424 19.4817C12.6173 19.4834 12.2963 19.4079 12.0059 19.2616C12.2704 19.609 12.6369 19.8647 13.0541 19.9929C13.4712 20.1211 13.918 20.1154 14.3317 19.9765C14.7454 19.8375 15.1052 19.5724 15.3607 19.2184C15.6162 18.8643 15.7545 18.439 15.7562 18.0023V8.13529H17.556ZM13.5777 13.4336V12.8752C12.5556 12.7362 11.5165 12.9478 10.63 13.4756C9.74342 14.0033 9.06157 14.816 8.69556 15.7812C8.32955 16.7464 8.30096 17.8073 8.61445 18.7909C8.92794 19.7745 9.56503 20.6228 10.4219 21.1976C9.80543 20.5596 9.38795 19.7558 9.22046 18.8843C9.05296 18.0128 9.14269 17.1113 9.4787 16.29C9.8147 15.4687 10.3824 14.7631 11.1125 14.2595C11.8426 13.7558 12.7034 13.4759 13.5899 13.4539L13.5777 13.4336Z" fill="#69C9D0"/>
</svg>
